<svg xmlns="http://www.w3.org/2000/svg" viewBox="0 0 64.87 72.33"><defs><style>.cls-1{fill:#231f20;}</style></defs><title>achievement</title><g id="Layer_2" data-name="Layer 2"><g id="Layer_1-2" data-name="Layer 1"><path class="cls-1" d="M37.68,54.42a2.57,2.57,0,0,1-2.07-4.1A70.31,70.31,0,0,0,45.35,28,81.58,81.58,0,0,0,47.74,5.15H17.33A85.08,85.08,0,0,0,19.4,27.73a84.18,84.18,0,0,0,10,22.7,2.57,2.57,0,0,1-4.29,2.84A87.93,87.93,0,0,1,14.41,29,90.18,90.18,0,0,1,12.34,2.34L12.55,0H52.43l.26,2.28a82.31,82.31,0,0,1-2.35,27C46.63,44,40,53,39.75,53.38A2.57,2.57,0,0,1,37.68,54.42Z"/><path class="cls-1" d="M44.21,46.13a2.57,2.57,0,0,1,0-5.15,21.08,21.08,0,0,0,6.14-1.27A13.7,13.7,0,0,0,58.7,32.1C62.32,23.36,55,14.64,55,14.55a2.57,2.57,0,1,1,3.92-3.33c.39.45,9.39,11.23,4.57,22.85A18.92,18.92,0,0,1,51.92,44.6a25.9,25.9,0,0,1-7.67,1.53Z"/><path class="cls-1" d="M20.66,46.13h0a25.9,25.9,0,0,1-7.67-1.53A18.92,18.92,0,0,1,1.41,34.07C-3.4,22.45,5.6,11.67,6,11.22A2.57,2.57,0,1,1,9.9,14.55c-.07.08-7.34,8.86-3.74,17.55a13.7,13.7,0,0,0,8.39,7.61A21.06,21.06,0,0,0,20.7,41a2.57,2.57,0,0,1,0,5.15Z"/><path class="cls-1" d="M40.72,62.16h-16a2.57,2.57,0,0,1,0-5.15h16a2.57,2.57,0,0,1,0,5.15Z"/><path class="cls-1" d="M45.59,72.33H18.95a2.57,2.57,0,1,1,0-5.15H45.59a2.57,2.57,0,1,1,0,5.15Z"/></g></g></svg>