<svg xmlns="http://www.w3.org/2000/svg" viewBox="0 0 204.68 247.51"><title>female</title><g id="Layer_2" data-name="Layer 2"><g id="Layer_1-2" data-name="Layer 1"><path d="M188.74,80.57a45,45,0,0,0-2.84-4.08l0,0h0A56.57,56.57,0,0,0,168,61.76,19.36,19.36,0,0,0,167,52s-5.12,1.36-5.12-1.71-1-6.48-3.75-6.82-4.61,3.43-4.61,3.43a28.89,28.89,0,0,1-.15,4.33c.65-15-2.15-20.49-10.93-32.65S121-1.14,102.93.14C66.81,2.71,54.67,24,49.73,47.89a14.9,14.9,0,0,0,0,3.17h0s-4.48.51-5.76,1.79,1.79,3.72,1.79,3.72S41.37,59,40.1,61c-.39.63-.17,1.21.36,1.9-4.56,3.49-12.78,11.53-16.72,26.23a71.44,71.44,0,0,0-1.91,25.46,58,58,0,0,0-4.95,24.28c-6.43,7.18-19.61,26.9-14.12,63.81C7,231.14,6.08,239.79,0,247.51c10.19-7.19,33.34-25.66,41.58-50.08a38.6,38.6,0,0,0,8.16-12.06c25.09,9.33,65.55,13.76,90.19,2.25,1.78,4.82,2.91,11.3,3.24,21.92,5.44-14.69,5.58-29.37,5.19-36.74a25.93,25.93,0,0,0,.73-3.27c3.85,5.59,15.71,24.74,9.08,40,0,0,10.24-16.11,9-31.77,2.69,21.78-1.78,30.07-1.78,30.07s19.57-19.31,15.73-46.55a54.58,54.58,0,0,1,.48-17c7.83-2.49,20.25-8.28,22.67-20.36C207.06,110.1,194.57,89.31,188.74,80.57ZM55.56,154.73c4.09.44,8,1.16,11.26,2.9A51.22,51.22,0,0,1,55,167.24,64.61,64.61,0,0,0,55.56,154.73Zm14.37-9.46a79,79,0,0,0-3.15-14.61A45.21,45.21,0,0,1,74.83,146c-.43.84-.89,1.68-1.37,2.51C72.34,147.41,71.15,146.32,69.92,145.27Zm-9.73-50a143.56,143.56,0,0,0,6.59,16.54c1,2.23,9.21,12.77,11.59,14.82l2.45,2.1A71.23,71.23,0,0,1,78,138.89c-.16-.72-.33-1.44-.53-2.17-2.1-7.64-9.19-14.75-16.25-21.33A40.92,40.92,0,0,1,60.19,95.31ZM43.66,82.61A18.91,18.91,0,0,1,46.11,78a11.16,11.16,0,0,0,.38,1.29,15.49,15.49,0,0,0,5.86-7.38c.72,2.84,1.52,5.44,2.32,7.8a50.64,50.64,0,0,0-2.13,27.54,53.94,53.94,0,0,1-4.52-5C43.94,96.89,43.34,88.92,43.66,82.61ZM57,122.4c.74.42,1.45.86,2.14,1.32l0,.06c5.34,8.91,8.15,15.42,9.56,20.49a95.75,95.75,0,0,0-19.59-11.76,96,96,0,0,1-5.73-18.12C47.12,117,51.77,119.45,57,122.4ZM41.63,197.26q.24-.7.45-1.41.52-.55,1-1.16A11.06,11.06,0,0,1,41.63,197.26Zm122.67-118c-2,12.94-12.46,30.14-19.78,37.15a120.83,120.83,0,0,0-11.47,12.8c-.31-2.47-.56-5.14-.74-8.06C138.6,112,142.76,99,145.55,86.77c1.77-7.77,3.69-14.44,5.2-20.35a49.55,49.55,0,0,0,8.1,2.78,11.76,11.76,0,0,0,3.75.44,3.16,3.16,0,0,0,1.17-.4C164.62,71.37,165.05,74.55,164.31,79.28Zm18.64,58.8c1.44-5.76,3.38-11.36,5.24-16.74C188.89,128,186.11,133.8,182.94,138.08Z"/></g></g></svg>