<svg xmlns="http://www.w3.org/2000/svg" viewBox="0 0 136.5 203.91"><title>male</title><g id="Layer_2" data-name="Layer 2"><g id="Layer_1-2" data-name="Layer 1"><path d="M130.89,181A88.76,88.76,0,0,1,107,170.23c-3.93-2.5-7.51-5.84-7.66-10.47-.38-11.46-2.55-23.06,2.46-34.29,2.3-5.15,3.24-10.89,4.83-16.48,4.53-1.58,6.48-5.4,8.15-9.39a32.27,32.27,0,0,0,2-13.21c-.08-4.24-.52-8.25-5.52-9.61v0c0-.2.43-.39.72-.59.73-3.75.56-7.7,1.16-11.58.65-4.18,1-8.71-.86-13a111.56,111.56,0,0,1-5.76-16.22,48.87,48.87,0,0,0-2.18-5.9c-.18-.45-.67-.78-1-1.17-1-.93-2.54.32-3.59-1s-2.24-3-3.81-4q-.82-.51-1.6-1.06a42.35,42.35,0,0,0-5.76-5.12,20.94,20.94,0,0,1-3.93-7c-4.32.64-5.57-3.78-8.92-4.74A19.6,19.6,0,0,1,66.29,0C63.05.44,60,.15,57.68,1.29,51.16,4.49,45.4,9,39.73,13.66l-2.43-.91c-1.5,1.12-3.54,2-3.89,4-.95,5.34-5.82,7.75-8.34,11.88-.69,1.13-1.7,1-2.75.55-2.78,2.53-3.7,6-3.87,9.42-.27,5.54-1.17,11-1.48,16.54-.43,7.46-1,14.85.41,22.06-.2.18-.39.37-.58.57l.77.47a7.41,7.41,0,0,1-.35,1.59c-1.21,1.41-3.3.81-4.36,2.32C9.69,94.51,14.13,106.67,24,112.31c1.1,3.79,2.21,7.7,3.39,11.59.77,2.54,1.47,5.17,3.21,7.22,2.53,3,3.2,6.49,3.61,10.16.32,2.83.8,5.66,1,8.5.21,3.84.65,7.67-.52,11.51-2.16,7.09-7.32,11-13.76,13.73C14,177.89,7.07,180.37,0,182.56a119.73,119.73,0,0,0,136.5,0Z"/></g></g></svg>