<svg id="Layer_1" data-name="Layer 1" xmlns="http://www.w3.org/2000/svg" viewBox="0 0 80 80"><defs><style>.cls-1,.cls-2{fill:#a4ce39;}.cls-1{fill-rule:evenodd;}</style></defs><title>private</title><path class="cls-1" d="M269.53,348.15c-.17-1.47,1.72-4.61,1.72-4.61s0-5.34-1.51-7.22c0,0,1.15-3,.91-5.26-.14-1.32-3.72-9.19-19.27-7.52l-5.84.63.81.65-2.84,1c-.58.2-4-3.47-10-3.36,1.9,1.64,7.3,2.58,7.35,6.59-.79-.45-4.87,1.21-6.33,2.89a3.06,3.06,0,0,0-.83,1.29,3,3,0,0,1,.26.25s-.29,0-.26-.25a4.17,4.17,0,0,0-4.28-.74c.74.36,3,1,3.15,1.87a2.06,2.06,0,0,1-.57,1.54s-6.94,2.55-8.78,7.58a34.38,34.38,0,0,1,5.6-2.81s-.74,4.52-4.64,4.92c.84.13,1.46,1.41,2.5,2.68s.05,5.69-.1,5.91,1.54.57,1.54.57-1.95,4.45-2.45,4.69-.49,2.27-.49,2.27l4.07-3.39s.59,3.42,1,2.84,1.4-3.57,2.68-2.5,2.3.85,1.77,2.76c-.1.36-.17.66-.24.92-2.56-.58-5.37-.81-7,.11a6.65,6.65,0,0,0-3,3.68A13.16,13.16,0,0,1,221,369.1c-.42.31-1.52,1.4-2.77,2.5a40,40,0,0,0,43.19,11.76c-.23-1.14-.4-2.1-.52-2.47a13.11,13.11,0,0,1-1.24-4.53,10.11,10.11,0,0,0-2.42-5.4,5.13,5.13,0,0,0-1.85-1.15,13.15,13.15,0,0,0-.94-1.5,15.66,15.66,0,0,0,1.15-2.51s1.33-3.26,4.41-3.34c1.86,0,3.92.83,5.27.91s2.52-.39,2.76-1.77,1-4.53,1-4.53l1.22-2.34,2.76-1.77S269.71,349.62,269.53,348.15Zm-24.38-23.94.3,0Zm-2.37.25.49-.05Zm.6-.06.7-.08Zm.72-.08.84-.09Z" transform="translate(-208.5 -305.5)"/><path class="cls-2" d="M248.5,308.5a37,37,0,1,1-37,37,37,37,0,0,1,37-37m0-3a40,40,0,1,0,40,40,40,40,0,0,0-40-40Z" transform="translate(-208.5 -305.5)"/></svg>